<svg width="672" height="135" viewBox="0 0 672 135" fill="none" xmlns="http://www.w3.org/2000/svg">
<g clip-path="url(#clip0_107_58)">
<path d="M266.926 107.146C278.385 97.9861 285.079 82.6558 285.603 71.1964H315.74C315.74 90.0527 309.927 114.198 288.605 125.121L266.926 107.146Z" fill="black"/>
<path d="M357.681 4.5863V28.8593H400.146V57.0542H357.681V129.707C352.571 131.649 346.937 132.709 340.409 132.709C333.536 132.709 327.723 131.649 323.137 129.707V57.0542H280.838V28.8593H323.137V4.5863H357.681Z" fill="black"/>
<path d="M388.521 66.9678C397.336 75.6038 407.556 96.0442 411.082 108.909L380.945 120.713C376.359 106.967 369.32 87.587 364.209 77.7118L388.534 66.9678H388.521Z" fill="black"/>
<path d="M536.688 24.4901C523.466 39.6416 505.567 54.7547 489.943 63.3013H507.088V130.129C501.799 132.07 496.165 133.118 489.471 133.118C482.419 133.118 476.606 132.058 471.854 130.129V72.244C457.75 78.5933 443.837 82.988 430.973 85.1087L416.869 58.8555C454.045 44.2279 487.005 24.1452 510.971 0L536.701 24.4901H536.688Z" fill="black"/>
<path d="M543.957 103.582C582.602 87.7276 605.534 66.508 614.055 38.7346L614.31 37.9042H555.25V9.78589H653.224C652.457 34.5954 645.686 57.0926 633.116 76.6387L632.681 77.3286L633.448 77.5969C649.174 83.1541 663.265 93.6681 671.377 101.832L645.993 129.528C636.82 119.001 625.68 109.624 612.854 101.64L612.432 101.384L612.075 101.717C597.473 115.22 579.204 125.938 560.59 131.943L543.944 103.607L543.957 103.582Z" fill="black"/>
<path d="M152.076 86.45V5.83826H186.25V83.384C186.25 95.0733 188.051 101.729 200.648 101.729C209.821 101.372 219.721 91.6496 228.715 81.7615L252.822 102.087C245.987 112.167 228.536 134.293 198.323 134.293C164.149 134.293 152.089 109.113 152.089 86.4373L152.076 86.45Z" fill="black"/>
<path d="M210.523 41.3279C210.523 36.4733 214.662 32.5129 219.517 32.5129C224.372 32.5129 228.332 36.4733 228.332 41.3279C228.332 46.1824 224.372 50.3216 219.517 50.3216C214.662 50.3216 210.523 46.3613 210.523 41.3279Z" fill="black"/>
<path d="M233.021 41.3279C233.021 36.4733 236.981 32.5129 242.014 32.5129C246.69 32.5129 250.829 36.4733 250.829 41.3279C250.829 46.1824 246.69 50.3216 242.014 50.3216C236.981 50.3216 233.021 46.3613 233.021 41.3279Z" fill="black"/>
<path d="M372.168 12.4559C372.168 7.60132 376.308 3.64099 381.162 3.64099C386.017 3.64099 389.977 7.60132 389.977 12.4559C389.977 17.3105 386.017 21.4497 381.162 21.4497C376.308 21.4497 372.168 17.4894 372.168 12.4559Z" fill="black"/>
<path d="M394.678 12.4559C394.678 7.60132 398.639 3.64099 403.672 3.64099C408.348 3.64099 412.487 7.60132 412.487 12.4559C412.487 17.3105 408.348 21.4497 403.672 21.4497C398.639 21.4497 394.678 17.4894 394.678 12.4559Z" fill="black"/>
<path d="M34.1993 8.39331V128.442C28.5654 131.087 8.62329 130.627 3.60262 128.289C1.62246 115.693 0 78.9254 0 51.0498C0 36.4733 0.357707 17.7576 1.4436 8.39331H34.1993Z" fill="black"/>
<path d="M123.026 12.1876H60.7463V41.8645H123.026V12.1876Z" fill="black"/>
<path d="M84.8658 85.0193V97.6157C103.096 98.3055 111.055 98.1267 128.595 97.1047V125.823C120.164 128.57 109.113 130.461 93.6296 130.461C70.0721 130.461 51.3308 122.553 51.3308 101.231C51.3308 95.9038 53.2726 88.3153 54.7673 85.0193H84.8658Z" fill="black"/>
</g>
<defs>
<clipPath id="clip0_107_58">
<rect width="671.39" height="134.293" fill="white"/>
</clipPath>
</defs>
</svg>
